<svg xmlns="http://www.w3.org/2000/svg" width="914.4mm" height="609.6mm" viewBox="0 0 914.4 609.6"><rect x="0" y="0" width="914.4" height="609.6" fill="#fff"/><rect x="12.00" y="12.00" width="890.40" height="585.60" fill="none" stroke="#111" stroke-width="1.0"/><line x1="724.40" y1="12.00" x2="724.40" y2="597.60" stroke="#111" stroke-width="0.8"/><text x="730.40" y="32.00" font-size="6.2" text-anchor="start" fill="#111" font-weight="bold" font-family="Helvetica,Arial,sans-serif">ASHGROVE SELECT SERVICE HOTEL</text><text x="730.40" y="42.00" font-size="3.2" text-anchor="start" fill="#555" font-weight="normal" font-family="Helvetica,Arial,sans-serif">SELECT-SERVICE HOTEL, 132 KEYS · SAMPLE PROJECT</text><line x1="730.40" y1="48.00" x2="896.40" y2="48.00" stroke="#111" stroke-width="0.4"/><text x="730.40" y="60.00" font-size="2.5" text-anchor="start" fill="#999" font-weight="bold" font-family="Helvetica,Arial,sans-serif">PROJECT NO.</text><text x="730.40" y="64.60" font-size="3.4" text-anchor="start" fill="#111" font-weight="normal" font-family="Helvetica,Arial,sans-serif">MSL-ASHGRO</text><text x="730.40" y="72.50" font-size="2.5" text-anchor="start" fill="#999" font-weight="bold" font-family="Helvetica,Arial,sans-serif">SECTOR</text><text x="730.40" y="77.10" font-size="3.4" text-anchor="start" fill="#111" font-weight="normal" font-family="Helvetica,Arial,sans-serif">Hospitality</text><text x="730.40" y="85.00" font-size="2.5" text-anchor="start" fill="#999" font-weight="bold" font-family="Helvetica,Arial,sans-serif">GROSS AREA</text><text x="730.40" y="89.60" font-size="3.4" text-anchor="start" fill="#111" font-weight="normal" font-family="Helvetica,Arial,sans-serif">84,600 sf</text><text x="730.40" y="97.50" font-size="2.5" text-anchor="start" fill="#999" font-weight="bold" font-family="Helvetica,Arial,sans-serif">STOREYS</text><text x="730.40" y="102.10" font-size="3.4" text-anchor="start" fill="#111" font-weight="normal" font-family="Helvetica,Arial,sans-serif">5</text><text x="730.40" y="110.00" font-size="2.5" text-anchor="start" fill="#999" font-weight="bold" font-family="Helvetica,Arial,sans-serif">STRUCTURE</text><text x="730.40" y="114.60" font-size="3.4" text-anchor="start" fill="#111" font-weight="normal" font-family="Helvetica,Arial,sans-serif">Concrete</text><text x="730.40" y="122.50" font-size="2.5" text-anchor="start" fill="#999" font-weight="bold" font-family="Helvetica,Arial,sans-serif">DISCIPLINE</text><text x="730.40" y="127.10" font-size="3.4" text-anchor="start" fill="#111" font-weight="normal" font-family="Helvetica,Arial,sans-serif">Architectural</text><text x="730.40" y="135.00" font-size="2.5" text-anchor="start" fill="#999" font-weight="bold" font-family="Helvetica,Arial,sans-serif">SCALE</text><text x="730.40" y="139.60" font-size="3.4" text-anchor="start" fill="#111" font-weight="normal" font-family="Helvetica,Arial,sans-serif">1:120</text><text x="730.40" y="147.50" font-size="2.5" text-anchor="start" fill="#999" font-weight="bold" font-family="Helvetica,Arial,sans-serif">DATE</text><text x="730.40" y="152.10" font-size="3.4" text-anchor="start" fill="#111" font-weight="normal" font-family="Helvetica,Arial,sans-serif">16 AUG 2026</text><text x="730.40" y="160.00" font-size="2.5" text-anchor="start" fill="#999" font-weight="bold" font-family="Helvetica,Arial,sans-serif">ISSUE</text><text x="730.40" y="164.60" font-size="3.4" text-anchor="start" fill="#111" font-weight="normal" font-family="Helvetica,Arial,sans-serif">A — DESIGN DEVELOPMENT</text><line x1="730.40" y1="176.50" x2="896.40" y2="176.50" stroke="#111" stroke-width="0.4"/><text x="730.40" y="184.50" font-size="4.6" text-anchor="start" fill="#111" font-weight="bold" font-family="Helvetica,Arial,sans-serif">NOT FOR CONSTRUCTION</text><text x="730.40" y="191.50" font-size="2.7" text-anchor="start" fill="#555" font-weight="normal" font-family="Helvetica,Arial,sans-serif">Synthetic sample project. Generated from</text><text x="730.40" y="195.90" font-size="2.7" text-anchor="start" fill="#555" font-weight="normal" font-family="Helvetica,Arial,sans-serif">tools/sectors.py by tools/sheets.py. No</text><text x="730.40" y="200.30" font-size="2.7" text-anchor="start" fill="#555" font-weight="normal" font-family="Helvetica,Arial,sans-serif">part of this has been reviewed or sealed by</text><text x="730.40" y="204.70" font-size="2.7" text-anchor="start" fill="#555" font-weight="normal" font-family="Helvetica,Arial,sans-serif">a licensed professional, and no dimension</text><text x="730.40" y="209.10" font-size="2.7" text-anchor="start" fill="#555" font-weight="normal" font-family="Helvetica,Arial,sans-serif">has been verified against a built condition.</text><text x="730.40" y="213.50" font-size="2.7" text-anchor="start" fill="#555" font-weight="normal" font-family="Helvetica,Arial,sans-serif">Do not use to build, bid, or price.</text><line x1="730.40" y1="563.60" x2="896.40" y2="563.60" stroke="#111" stroke-width="0.4"/><text x="730.40" y="573.60" font-size="3.4" text-anchor="start" fill="#111" font-weight="bold" font-family="Helvetica,Arial,sans-serif">BUILDING ELEVATIONS</text><text x="730.40" y="589.60" font-size="11.0" text-anchor="start" fill="#111" font-weight="bold" font-family="Helvetica,Arial,sans-serif">A2.01</text><line x1="24.00" y1="213.32" x2="700.40" y2="213.32" stroke="#111" stroke-width="0.8"/><rect x="38.00" y="82.00" width="648.40" height="131.32" fill="#f6f7f9" stroke="#111" stroke-width="0.5"/><line x1="28.00" y1="213.32" x2="696.40" y2="213.32" stroke="#111" stroke-width="0.5"/><text x="26.00" y="212.12" font-size="2.5" text-anchor="end" fill="#555" font-weight="normal" font-family="Helvetica,Arial,sans-serif">L1</text><text x="698.40" y="212.12" font-size="2.5" text-anchor="start" fill="#999" font-weight="normal" font-family="Helvetica,Arial,sans-serif">+0.00</text><line x1="28.00" y1="187.06" x2="696.40" y2="187.06" stroke="#555" stroke-width="0.25" stroke-dasharray="2,1.5"/><text x="26.00" y="185.86" font-size="2.5" text-anchor="end" fill="#555" font-weight="normal" font-family="Helvetica,Arial,sans-serif">L2</text><text x="698.40" y="185.86" font-size="2.5" text-anchor="start" fill="#999" font-weight="normal" font-family="Helvetica,Arial,sans-serif">+3.20</text><line x1="28.00" y1="160.79" x2="696.40" y2="160.79" stroke="#555" stroke-width="0.25" stroke-dasharray="2,1.5"/><text x="26.00" y="159.59" font-size="2.5" text-anchor="end" fill="#555" font-weight="normal" font-family="Helvetica,Arial,sans-serif">L3</text><text x="698.40" y="159.59" font-size="2.5" text-anchor="start" fill="#999" font-weight="normal" font-family="Helvetica,Arial,sans-serif">+6.40</text><line x1="28.00" y1="134.53" x2="696.40" y2="134.53" stroke="#555" stroke-width="0.25" stroke-dasharray="2,1.5"/><text x="26.00" y="133.33" font-size="2.5" text-anchor="end" fill="#555" font-weight="normal" font-family="Helvetica,Arial,sans-serif">L4</text><text x="698.40" y="133.33" font-size="2.5" text-anchor="start" fill="#999" font-weight="normal" font-family="Helvetica,Arial,sans-serif">+9.60</text><line x1="28.00" y1="108.26" x2="696.40" y2="108.26" stroke="#555" stroke-width="0.25" stroke-dasharray="2,1.5"/><text x="26.00" y="107.06" font-size="2.5" text-anchor="end" fill="#555" font-weight="normal" font-family="Helvetica,Arial,sans-serif">L5</text><text x="698.40" y="107.06" font-size="2.5" text-anchor="start" fill="#999" font-weight="normal" font-family="Helvetica,Arial,sans-serif">+12.80</text><line x1="28.00" y1="82.00" x2="696.40" y2="82.00" stroke="#555" stroke-width="0.25" stroke-dasharray="2,1.5"/><text x="26.00" y="80.80" font-size="2.5" text-anchor="end" fill="#555" font-weight="normal" font-family="Helvetica,Arial,sans-serif">ROOF</text><text x="698.40" y="80.80" font-size="2.5" text-anchor="start" fill="#999" font-weight="normal" font-family="Helvetica,Arial,sans-serif">+16.00</text><rect x="56.78" y="191.57" width="12.31" height="12.31" fill="#dde5ee" stroke="#111" stroke-width="0.25"/><rect x="106.66" y="191.57" width="12.31" height="12.31" fill="#dde5ee" stroke="#111" stroke-width="0.25"/><rect x="156.54" y="191.57" width="12.31" height="12.31" fill="#dde5ee" stroke="#111" stroke-width="0.25"/><rect x="206.41" y="191.57" width="12.31" height="12.31" fill="#dde5ee" stroke="#111" stroke-width="0.25"/><rect x="256.29" y="191.57" width="12.31" height="12.31" fill="#dde5ee" stroke="#111" stroke-width="0.25"/><rect x="306.17" y="191.57" width="12.31" height="12.31" fill="#dde5ee" stroke="#111" stroke-width="0.25"/><rect x="356.04" y="191.57" width="12.31" height="12.31" fill="#dde5ee" stroke="#111" stroke-width="0.25"/><rect x="405.92" y="191.57" width="12.31" height="12.31" fill="#dde5ee" stroke="#111" stroke-width="0.25"/><rect x="455.80" y="191.57" width="12.31" height="12.31" fill="#dde5ee" stroke="#111" stroke-width="0.25"/><rect x="505.68" y="191.57" width="12.31" height="12.31" fill="#dde5ee" stroke="#111" stroke-width="0.25"/><rect x="555.55" y="191.57" width="12.31" height="12.31" fill="#dde5ee" stroke="#111" stroke-width="0.25"/><rect x="605.43" y="191.57" width="12.31" height="12.31" fill="#dde5ee" stroke="#111" stroke-width="0.25"/><rect x="655.31" y="191.57" width="12.31" height="12.31" fill="#dde5ee" stroke="#111" stroke-width="0.25"/><rect x="56.78" y="165.31" width="12.31" height="12.31" fill="#dde5ee" stroke="#111" stroke-width="0.25"/><rect x="106.66" y="165.31" width="12.31" height="12.31" fill="#dde5ee" stroke="#111" stroke-width="0.25"/><rect x="156.54" y="165.31" width="12.31" height="12.31" fill="#dde5ee" stroke="#111" stroke-width="0.25"/><rect x="206.41" y="165.31" width="12.31" height="12.31" fill="#dde5ee" stroke="#111" stroke-width="0.25"/><rect x="256.29" y="165.31" width="12.31" height="12.31" fill="#dde5ee" stroke="#111" stroke-width="0.25"/><rect x="306.17" y="165.31" width="12.31" height="12.31" fill="#dde5ee" stroke="#111" stroke-width="0.25"/><rect x="356.04" y="165.31" width="12.31" height="12.31" fill="#dde5ee" stroke="#111" stroke-width="0.25"/><rect x="405.92" y="165.31" width="12.31" height="12.31" fill="#dde5ee" stroke="#111" stroke-width="0.25"/><rect x="455.80" y="165.31" width="12.31" height="12.31" fill="#dde5ee" stroke="#111" stroke-width="0.25"/><rect x="505.68" y="165.31" width="12.31" height="12.31" fill="#dde5ee" stroke="#111" stroke-width="0.25"/><rect x="555.55" y="165.31" width="12.31" height="12.31" fill="#dde5ee" stroke="#111" stroke-width="0.25"/><rect x="605.43" y="165.31" width="12.31" height="12.31" fill="#dde5ee" stroke="#111" stroke-width="0.25"/><rect x="655.31" y="165.31" width="12.31" height="12.31" fill="#dde5ee" stroke="#111" stroke-width="0.25"/><rect x="56.78" y="139.04" width="12.31" height="12.31" fill="#dde5ee" stroke="#111" stroke-width="0.25"/><rect x="106.66" y="139.04" width="12.31" height="12.31" fill="#dde5ee" stroke="#111" stroke-width="0.25"/><rect x="156.54" y="139.04" width="12.31" height="12.31" fill="#dde5ee" stroke="#111" stroke-width="0.25"/><rect x="206.41" y="139.04" width="12.31" height="12.31" fill="#dde5ee" stroke="#111" stroke-width="0.25"/><rect x="256.29" y="139.04" width="12.31" height="12.31" fill="#dde5ee" stroke="#111" stroke-width="0.25"/><rect x="306.17" y="139.04" width="12.31" height="12.31" fill="#dde5ee" stroke="#111" stroke-width="0.25"/><rect x="356.04" y="139.04" width="12.31" height="12.31" fill="#dde5ee" stroke="#111" stroke-width="0.25"/><rect x="405.92" y="139.04" width="12.31" height="12.31" fill="#dde5ee" stroke="#111" stroke-width="0.25"/><rect x="455.80" y="139.04" width="12.31" height="12.31" fill="#dde5ee" stroke="#111" stroke-width="0.25"/><rect x="505.68" y="139.04" width="12.31" height="12.31" fill="#dde5ee" stroke="#111" stroke-width="0.25"/><rect x="555.55" y="139.04" width="12.31" height="12.31" fill="#dde5ee" stroke="#111" stroke-width="0.25"/><rect x="605.43" y="139.04" width="12.31" height="12.31" fill="#dde5ee" stroke="#111" stroke-width="0.25"/><rect x="655.31" y="139.04" width="12.31" height="12.31" fill="#dde5ee" stroke="#111" stroke-width="0.25"/><rect x="56.78" y="112.78" width="12.31" height="12.31" fill="#dde5ee" stroke="#111" stroke-width="0.25"/><rect x="106.66" y="112.78" width="12.31" height="12.31" fill="#dde5ee" stroke="#111" stroke-width="0.25"/><rect x="156.54" y="112.78" width="12.31" height="12.31" fill="#dde5ee" stroke="#111" stroke-width="0.25"/><rect x="206.41" y="112.78" width="12.31" height="12.31" fill="#dde5ee" stroke="#111" stroke-width="0.25"/><rect x="256.29" y="112.78" width="12.31" height="12.31" fill="#dde5ee" stroke="#111" stroke-width="0.25"/><rect x="306.17" y="112.78" width="12.31" height="12.31" fill="#dde5ee" stroke="#111" stroke-width="0.25"/><rect x="356.04" y="112.78" width="12.31" height="12.31" fill="#dde5ee" stroke="#111" stroke-width="0.25"/><rect x="405.92" y="112.78" width="12.31" height="12.31" fill="#dde5ee" stroke="#111" stroke-width="0.25"/><rect x="455.80" y="112.78" width="12.31" height="12.31" fill="#dde5ee" stroke="#111" stroke-width="0.25"/><rect x="505.68" y="112.78" width="12.31" height="12.31" fill="#dde5ee" stroke="#111" stroke-width="0.25"/><rect x="555.55" y="112.78" width="12.31" height="12.31" fill="#dde5ee" stroke="#111" stroke-width="0.25"/><rect x="605.43" y="112.78" width="12.31" height="12.31" fill="#dde5ee" stroke="#111" stroke-width="0.25"/><rect x="655.31" y="112.78" width="12.31" height="12.31" fill="#dde5ee" stroke="#111" stroke-width="0.25"/><rect x="56.78" y="86.51" width="12.31" height="12.31" fill="#dde5ee" stroke="#111" stroke-width="0.25"/><rect x="106.66" y="86.51" width="12.31" height="12.31" fill="#dde5ee" stroke="#111" stroke-width="0.25"/><rect x="156.54" y="86.51" width="12.31" height="12.31" fill="#dde5ee" stroke="#111" stroke-width="0.25"/><rect x="206.41" y="86.51" width="12.31" height="12.31" fill="#dde5ee" stroke="#111" stroke-width="0.25"/><rect x="256.29" y="86.51" width="12.31" height="12.31" fill="#dde5ee" stroke="#111" stroke-width="0.25"/><rect x="306.17" y="86.51" width="12.31" height="12.31" fill="#dde5ee" stroke="#111" stroke-width="0.25"/><rect x="356.04" y="86.51" width="12.31" height="12.31" fill="#dde5ee" stroke="#111" stroke-width="0.25"/><rect x="405.92" y="86.51" width="12.31" height="12.31" fill="#dde5ee" stroke="#111" stroke-width="0.25"/><rect x="455.80" y="86.51" width="12.31" height="12.31" fill="#dde5ee" stroke="#111" stroke-width="0.25"/><rect x="505.68" y="86.51" width="12.31" height="12.31" fill="#dde5ee" stroke="#111" stroke-width="0.25"/><rect x="555.55" y="86.51" width="12.31" height="12.31" fill="#dde5ee" stroke="#111" stroke-width="0.25"/><rect x="605.43" y="86.51" width="12.31" height="12.31" fill="#dde5ee" stroke="#111" stroke-width="0.25"/><rect x="655.31" y="86.51" width="12.31" height="12.31" fill="#dde5ee" stroke="#111" stroke-width="0.25"/><text x="38.00" y="74.00" font-size="4.6" text-anchor="start" fill="#111" font-weight="bold" font-family="Helvetica,Arial,sans-serif">SOUTH ELEVATION</text><text x="38.00" y="79.00" font-size="2.8" text-anchor="start" fill="#555" font-weight="normal" font-family="Helvetica,Arial,sans-serif">79.0 m long · 16.00 m to roof</text><line x1="266.53" y1="422.64" x2="457.87" y2="422.64" stroke="#111" stroke-width="0.8"/><rect x="280.53" y="291.32" width="163.33" height="131.32" fill="#f6f7f9" stroke="#111" stroke-width="0.5"/><line x1="270.53" y1="422.64" x2="453.87" y2="422.64" stroke="#111" stroke-width="0.5"/><text x="268.53" y="421.44" font-size="2.5" text-anchor="end" fill="#555" font-weight="normal" font-family="Helvetica,Arial,sans-serif">L1</text><text x="455.87" y="421.44" font-size="2.5" text-anchor="start" fill="#999" font-weight="normal" font-family="Helvetica,Arial,sans-serif">+0.00</text><line x1="270.53" y1="396.38" x2="453.87" y2="396.38" stroke="#555" stroke-width="0.25" stroke-dasharray="2,1.5"/><text x="268.53" y="395.18" font-size="2.5" text-anchor="end" fill="#555" font-weight="normal" font-family="Helvetica,Arial,sans-serif">L2</text><text x="455.87" y="395.18" font-size="2.5" text-anchor="start" fill="#999" font-weight="normal" font-family="Helvetica,Arial,sans-serif">+3.20</text><line x1="270.53" y1="370.11" x2="453.87" y2="370.11" stroke="#555" stroke-width="0.25" stroke-dasharray="2,1.5"/><text x="268.53" y="368.91" font-size="2.5" text-anchor="end" fill="#555" font-weight="normal" font-family="Helvetica,Arial,sans-serif">L3</text><text x="455.87" y="368.91" font-size="2.5" text-anchor="start" fill="#999" font-weight="normal" font-family="Helvetica,Arial,sans-serif">+6.40</text><line x1="270.53" y1="343.85" x2="453.87" y2="343.85" stroke="#555" stroke-width="0.25" stroke-dasharray="2,1.5"/><text x="268.53" y="342.65" font-size="2.5" text-anchor="end" fill="#555" font-weight="normal" font-family="Helvetica,Arial,sans-serif">L4</text><text x="455.87" y="342.65" font-size="2.5" text-anchor="start" fill="#999" font-weight="normal" font-family="Helvetica,Arial,sans-serif">+9.60</text><line x1="270.53" y1="317.59" x2="453.87" y2="317.59" stroke="#555" stroke-width="0.25" stroke-dasharray="2,1.5"/><text x="268.53" y="316.39" font-size="2.5" text-anchor="end" fill="#555" font-weight="normal" font-family="Helvetica,Arial,sans-serif">L5</text><text x="455.87" y="316.39" font-size="2.5" text-anchor="start" fill="#999" font-weight="normal" font-family="Helvetica,Arial,sans-serif">+12.80</text><line x1="270.53" y1="291.32" x2="453.87" y2="291.32" stroke="#555" stroke-width="0.25" stroke-dasharray="2,1.5"/><text x="268.53" y="290.12" font-size="2.5" text-anchor="end" fill="#555" font-weight="normal" font-family="Helvetica,Arial,sans-serif">ROOF</text><text x="455.87" y="290.12" font-size="2.5" text-anchor="start" fill="#999" font-weight="normal" font-family="Helvetica,Arial,sans-serif">+16.00</text><rect x="301.60" y="400.89" width="12.31" height="12.31" fill="#dde5ee" stroke="#111" stroke-width="0.25"/><rect x="356.04" y="400.89" width="12.31" height="12.31" fill="#dde5ee" stroke="#111" stroke-width="0.25"/><rect x="410.49" y="400.89" width="12.31" height="12.31" fill="#dde5ee" stroke="#111" stroke-width="0.25"/><rect x="301.60" y="374.63" width="12.31" height="12.31" fill="#dde5ee" stroke="#111" stroke-width="0.25"/><rect x="356.04" y="374.63" width="12.31" height="12.31" fill="#dde5ee" stroke="#111" stroke-width="0.25"/><rect x="410.49" y="374.63" width="12.31" height="12.31" fill="#dde5ee" stroke="#111" stroke-width="0.25"/><rect x="301.60" y="348.36" width="12.31" height="12.31" fill="#dde5ee" stroke="#111" stroke-width="0.25"/><rect x="356.04" y="348.36" width="12.31" height="12.31" fill="#dde5ee" stroke="#111" stroke-width="0.25"/><rect x="410.49" y="348.36" width="12.31" height="12.31" fill="#dde5ee" stroke="#111" stroke-width="0.25"/><rect x="301.60" y="322.10" width="12.31" height="12.31" fill="#dde5ee" stroke="#111" stroke-width="0.25"/><rect x="356.04" y="322.10" width="12.31" height="12.31" fill="#dde5ee" stroke="#111" stroke-width="0.25"/><rect x="410.49" y="322.10" width="12.31" height="12.31" fill="#dde5ee" stroke="#111" stroke-width="0.25"/><rect x="301.60" y="295.84" width="12.31" height="12.31" fill="#dde5ee" stroke="#111" stroke-width="0.25"/><rect x="356.04" y="295.84" width="12.31" height="12.31" fill="#dde5ee" stroke="#111" stroke-width="0.25"/><rect x="410.49" y="295.84" width="12.31" height="12.31" fill="#dde5ee" stroke="#111" stroke-width="0.25"/><text x="280.53" y="283.32" font-size="4.6" text-anchor="start" fill="#111" font-weight="bold" font-family="Helvetica,Arial,sans-serif">EAST ELEVATION</text><text x="280.53" y="288.32" font-size="2.8" text-anchor="start" fill="#555" font-weight="normal" font-family="Helvetica,Arial,sans-serif">19.9 m long · 16.00 m to roof</text><line x1="34.00" y1="579.60" x2="198.15" y2="579.60" stroke="#111" stroke-width="0.5"/><line x1="34.00" y1="577.80" x2="34.00" y2="581.40" stroke="#111" stroke-width="0.5"/><text x="34.00" y="585.60" font-size="2.6" text-anchor="middle" fill="#111" font-weight="normal" font-family="Helvetica,Arial,sans-serif">0</text><line x1="75.04" y1="577.80" x2="75.04" y2="581.40" stroke="#111" stroke-width="0.5"/><text x="75.04" y="585.60" font-size="2.6" text-anchor="middle" fill="#111" font-weight="normal" font-family="Helvetica,Arial,sans-serif">5</text><line x1="116.08" y1="577.80" x2="116.08" y2="581.40" stroke="#111" stroke-width="0.5"/><text x="116.08" y="585.60" font-size="2.6" text-anchor="middle" fill="#111" font-weight="normal" font-family="Helvetica,Arial,sans-serif">10</text><line x1="198.15" y1="577.80" x2="198.15" y2="581.40" stroke="#111" stroke-width="0.5"/><text x="198.15" y="585.60" font-size="2.6" text-anchor="middle" fill="#111" font-weight="normal" font-family="Helvetica,Arial,sans-serif">20</text><text x="116.08" y="575.60" font-size="2.4" text-anchor="middle" fill="#555" font-weight="normal" font-family="Helvetica,Arial,sans-serif">METRES</text></svg>