<svg xmlns="http://www.w3.org/2000/svg" width="914.4mm" height="609.6mm" viewBox="0 0 914.4 609.6"><rect x="0" y="0" width="914.4" height="609.6" fill="#fff"/><rect x="12.00" y="12.00" width="890.40" height="585.60" fill="none" stroke="#111" stroke-width="1.0"/><line x1="724.40" y1="12.00" x2="724.40" y2="597.60" stroke="#111" stroke-width="0.8"/><text x="730.40" y="32.00" font-size="6.2" text-anchor="start" fill="#111" font-weight="bold" font-family="Helvetica,Arial,sans-serif">FOUNDRY ROW</text><text x="730.40" y="42.00" font-size="3.2" text-anchor="start" fill="#555" font-weight="normal" font-family="Helvetica,Arial,sans-serif">RETAIL PODIUM WITH RESIDENTIAL TOWER ABOVE · SAMPLE PROJECT</text><line x1="730.40" y1="48.00" x2="896.40" y2="48.00" stroke="#111" stroke-width="0.4"/><text x="730.40" y="60.00" font-size="2.5" text-anchor="start" fill="#999" font-weight="bold" font-family="Helvetica,Arial,sans-serif">PROJECT NO.</text><text x="730.40" y="64.60" font-size="3.4" text-anchor="start" fill="#111" font-weight="normal" font-family="Helvetica,Arial,sans-serif">MSL-FOUNDR</text><text x="730.40" y="72.50" font-size="2.5" text-anchor="start" fill="#999" font-weight="bold" font-family="Helvetica,Arial,sans-serif">SECTOR</text><text x="730.40" y="77.10" font-size="3.4" text-anchor="start" fill="#111" font-weight="normal" font-family="Helvetica,Arial,sans-serif">Mixed-Use</text><text x="730.40" y="85.00" font-size="2.5" text-anchor="start" fill="#999" font-weight="bold" font-family="Helvetica,Arial,sans-serif">GROSS AREA</text><text x="730.40" y="89.60" font-size="3.4" text-anchor="start" fill="#111" font-weight="normal" font-family="Helvetica,Arial,sans-serif">246,300 sf</text><text x="730.40" y="97.50" font-size="2.5" text-anchor="start" fill="#999" font-weight="bold" font-family="Helvetica,Arial,sans-serif">STOREYS</text><text x="730.40" y="102.10" font-size="3.4" text-anchor="start" fill="#111" font-weight="normal" font-family="Helvetica,Arial,sans-serif">10</text><text x="730.40" y="110.00" font-size="2.5" text-anchor="start" fill="#999" font-weight="bold" font-family="Helvetica,Arial,sans-serif">STRUCTURE</text><text x="730.40" y="114.60" font-size="3.4" text-anchor="start" fill="#111" font-weight="normal" font-family="Helvetica,Arial,sans-serif">Concrete</text><text x="730.40" y="122.50" font-size="2.5" text-anchor="start" fill="#999" font-weight="bold" font-family="Helvetica,Arial,sans-serif">DISCIPLINE</text><text x="730.40" y="127.10" font-size="3.4" text-anchor="start" fill="#111" font-weight="normal" font-family="Helvetica,Arial,sans-serif">Electrical</text><text x="730.40" y="135.00" font-size="2.5" text-anchor="start" fill="#999" font-weight="bold" font-family="Helvetica,Arial,sans-serif">SCALE</text><text x="730.40" y="139.60" font-size="3.4" text-anchor="start" fill="#111" font-weight="normal" font-family="Helvetica,Arial,sans-serif">1:100</text><text x="730.40" y="147.50" font-size="2.5" text-anchor="start" fill="#999" font-weight="bold" font-family="Helvetica,Arial,sans-serif">DATE</text><text x="730.40" y="152.10" font-size="3.4" text-anchor="start" fill="#111" font-weight="normal" font-family="Helvetica,Arial,sans-serif">16 AUG 2026</text><text x="730.40" y="160.00" font-size="2.5" text-anchor="start" fill="#999" font-weight="bold" font-family="Helvetica,Arial,sans-serif">ISSUE</text><text x="730.40" y="164.60" font-size="3.4" text-anchor="start" fill="#111" font-weight="normal" font-family="Helvetica,Arial,sans-serif">A — DESIGN DEVELOPMENT</text><line x1="730.40" y1="176.50" x2="896.40" y2="176.50" stroke="#111" stroke-width="0.4"/><text x="730.40" y="184.50" font-size="4.6" text-anchor="start" fill="#111" font-weight="bold" font-family="Helvetica,Arial,sans-serif">NOT FOR CONSTRUCTION</text><text x="730.40" y="191.50" font-size="2.7" text-anchor="start" fill="#555" font-weight="normal" font-family="Helvetica,Arial,sans-serif">Synthetic sample project. Generated from</text><text x="730.40" y="195.90" font-size="2.7" text-anchor="start" fill="#555" font-weight="normal" font-family="Helvetica,Arial,sans-serif">tools/sectors.py by tools/sheets.py. No</text><text x="730.40" y="200.30" font-size="2.7" text-anchor="start" fill="#555" font-weight="normal" font-family="Helvetica,Arial,sans-serif">part of this has been reviewed or sealed by</text><text x="730.40" y="204.70" font-size="2.7" text-anchor="start" fill="#555" font-weight="normal" font-family="Helvetica,Arial,sans-serif">a licensed professional, and no dimension</text><text x="730.40" y="209.10" font-size="2.7" text-anchor="start" fill="#555" font-weight="normal" font-family="Helvetica,Arial,sans-serif">has been verified against a built condition.</text><text x="730.40" y="213.50" font-size="2.7" text-anchor="start" fill="#555" font-weight="normal" font-family="Helvetica,Arial,sans-serif">Do not use to build, bid, or price.</text><line x1="730.40" y1="563.60" x2="896.40" y2="563.60" stroke="#111" stroke-width="0.4"/><text x="730.40" y="573.60" font-size="3.4" text-anchor="start" fill="#111" font-weight="bold" font-family="Helvetica,Arial,sans-serif">POWER AND LIGHTING PLAN — TYPICAL LEVEL</text><text x="730.40" y="589.60" font-size="11.0" text-anchor="start" fill="#111" font-weight="bold" font-family="Helvetica,Arial,sans-serif">E2.01</text><line x1="60.00" y1="107.40" x2="60.00" y2="494.20" stroke="#bbb" stroke-width="0.2" stroke-dasharray="2,1.5"/><circle cx="60.00" cy="102.40" r="3.40" fill="#fff" stroke="#555" stroke-width="0.3"/><text x="60.00" y="103.60" font-size="2.8" text-anchor="middle" fill="#555" font-weight="bold" font-family="Helvetica,Arial,sans-serif">A</text><line x1="149.49" y1="107.40" x2="149.49" y2="494.20" stroke="#bbb" stroke-width="0.2" stroke-dasharray="2,1.5"/><circle cx="149.49" cy="102.40" r="3.40" fill="#fff" stroke="#555" stroke-width="0.3"/><text x="149.49" y="103.60" font-size="2.8" text-anchor="middle" fill="#555" font-weight="bold" font-family="Helvetica,Arial,sans-serif">B</text><line x1="238.97" y1="107.40" x2="238.97" y2="494.20" stroke="#bbb" stroke-width="0.2" stroke-dasharray="2,1.5"/><circle cx="238.97" cy="102.40" r="3.40" fill="#fff" stroke="#555" stroke-width="0.3"/><text x="238.97" y="103.60" font-size="2.8" text-anchor="middle" fill="#555" font-weight="bold" font-family="Helvetica,Arial,sans-serif">C</text><line x1="328.46" y1="107.40" x2="328.46" y2="494.20" stroke="#bbb" stroke-width="0.2" stroke-dasharray="2,1.5"/><circle cx="328.46" cy="102.40" r="3.40" fill="#fff" stroke="#555" stroke-width="0.3"/><text x="328.46" y="103.60" font-size="2.8" text-anchor="middle" fill="#555" font-weight="bold" font-family="Helvetica,Arial,sans-serif">D</text><line x1="417.94" y1="107.40" x2="417.94" y2="494.20" stroke="#bbb" stroke-width="0.2" stroke-dasharray="2,1.5"/><circle cx="417.94" cy="102.40" r="3.40" fill="#fff" stroke="#555" stroke-width="0.3"/><text x="417.94" y="103.60" font-size="2.8" text-anchor="middle" fill="#555" font-weight="bold" font-family="Helvetica,Arial,sans-serif">E</text><line x1="507.43" y1="107.40" x2="507.43" y2="494.20" stroke="#bbb" stroke-width="0.2" stroke-dasharray="2,1.5"/><circle cx="507.43" cy="102.40" r="3.40" fill="#fff" stroke="#555" stroke-width="0.3"/><text x="507.43" y="103.60" font-size="2.8" text-anchor="middle" fill="#555" font-weight="bold" font-family="Helvetica,Arial,sans-serif">F</text><line x1="596.91" y1="107.40" x2="596.91" y2="494.20" stroke="#bbb" stroke-width="0.2" stroke-dasharray="2,1.5"/><circle cx="596.91" cy="102.40" r="3.40" fill="#fff" stroke="#555" stroke-width="0.3"/><text x="596.91" y="103.60" font-size="2.8" text-anchor="middle" fill="#555" font-weight="bold" font-family="Helvetica,Arial,sans-serif">G</text><line x1="686.40" y1="107.40" x2="686.40" y2="494.20" stroke="#bbb" stroke-width="0.2" stroke-dasharray="2,1.5"/><circle cx="686.40" cy="102.40" r="3.40" fill="#fff" stroke="#555" stroke-width="0.3"/><text x="686.40" y="103.60" font-size="2.8" text-anchor="middle" fill="#555" font-weight="bold" font-family="Helvetica,Arial,sans-serif">H</text><line x1="52.00" y1="488.20" x2="692.40" y2="488.20" stroke="#bbb" stroke-width="0.2" stroke-dasharray="2,1.5"/><circle cx="47.00" cy="488.20" r="3.40" fill="#fff" stroke="#555" stroke-width="0.3"/><text x="47.00" y="489.40" font-size="2.8" text-anchor="middle" fill="#555" font-weight="bold" font-family="Helvetica,Arial,sans-serif">1</text><line x1="52.00" y1="395.00" x2="692.40" y2="395.00" stroke="#bbb" stroke-width="0.2" stroke-dasharray="2,1.5"/><circle cx="47.00" cy="395.00" r="3.40" fill="#fff" stroke="#555" stroke-width="0.3"/><text x="47.00" y="396.20" font-size="2.8" text-anchor="middle" fill="#555" font-weight="bold" font-family="Helvetica,Arial,sans-serif">2</text><line x1="52.00" y1="301.80" x2="692.40" y2="301.80" stroke="#bbb" stroke-width="0.2" stroke-dasharray="2,1.5"/><circle cx="47.00" cy="301.80" r="3.40" fill="#fff" stroke="#555" stroke-width="0.3"/><text x="47.00" y="303.00" font-size="2.8" text-anchor="middle" fill="#555" font-weight="bold" font-family="Helvetica,Arial,sans-serif">3</text><line x1="52.00" y1="208.60" x2="692.40" y2="208.60" stroke="#bbb" stroke-width="0.2" stroke-dasharray="2,1.5"/><circle cx="47.00" cy="208.60" r="3.40" fill="#fff" stroke="#555" stroke-width="0.3"/><text x="47.00" y="209.80" font-size="2.8" text-anchor="middle" fill="#555" font-weight="bold" font-family="Helvetica,Arial,sans-serif">4</text><line x1="52.00" y1="115.40" x2="692.40" y2="115.40" stroke="#bbb" stroke-width="0.2" stroke-dasharray="2,1.5"/><circle cx="47.00" cy="115.40" r="3.40" fill="#fff" stroke="#555" stroke-width="0.3"/><text x="47.00" y="116.60" font-size="2.8" text-anchor="middle" fill="#555" font-weight="bold" font-family="Helvetica,Arial,sans-serif">5</text><rect x="60.00" y="115.40" width="626.40" height="372.81" fill="none" stroke="#555" stroke-width="0.4"/><line x1="60.00" y1="443.47" x2="686.40" y2="443.47" stroke="#b8860b" stroke-width="1.1"/><circle cx="104.74" cy="441.60" r="1.50" fill="#e6f3ec" stroke="#1f6f4a" stroke-width="0.3"/><circle cx="104.74" cy="348.40" r="1.50" fill="#e6f3ec" stroke="#1f6f4a" stroke-width="0.3"/><circle cx="104.74" cy="255.20" r="1.50" fill="#e6f3ec" stroke="#1f6f4a" stroke-width="0.3"/><circle cx="104.74" cy="162.00" r="1.50" fill="#e6f3ec" stroke="#1f6f4a" stroke-width="0.3"/><circle cx="194.23" cy="441.60" r="1.50" fill="#e6f3ec" stroke="#1f6f4a" stroke-width="0.3"/><circle cx="194.23" cy="348.40" r="1.50" fill="#e6f3ec" stroke="#1f6f4a" stroke-width="0.3"/><circle cx="194.23" cy="255.20" r="1.50" fill="#e6f3ec" stroke="#1f6f4a" stroke-width="0.3"/><circle cx="194.23" cy="162.00" r="1.50" fill="#e6f3ec" stroke="#1f6f4a" stroke-width="0.3"/><circle cx="283.71" cy="441.60" r="1.50" fill="#e6f3ec" stroke="#1f6f4a" stroke-width="0.3"/><circle cx="283.71" cy="348.40" r="1.50" fill="#e6f3ec" stroke="#1f6f4a" stroke-width="0.3"/><circle cx="283.71" cy="255.20" r="1.50" fill="#e6f3ec" stroke="#1f6f4a" stroke-width="0.3"/><circle cx="283.71" cy="162.00" r="1.50" fill="#e6f3ec" stroke="#1f6f4a" stroke-width="0.3"/><circle cx="373.20" cy="441.60" r="1.50" fill="#e6f3ec" stroke="#1f6f4a" stroke-width="0.3"/><circle cx="373.20" cy="348.40" r="1.50" fill="#e6f3ec" stroke="#1f6f4a" stroke-width="0.3"/><circle cx="373.20" cy="255.20" r="1.50" fill="#e6f3ec" stroke="#1f6f4a" stroke-width="0.3"/><circle cx="373.20" cy="162.00" r="1.50" fill="#e6f3ec" stroke="#1f6f4a" stroke-width="0.3"/><circle cx="462.69" cy="441.60" r="1.50" fill="#e6f3ec" stroke="#1f6f4a" stroke-width="0.3"/><circle cx="462.69" cy="348.40" r="1.50" fill="#e6f3ec" stroke="#1f6f4a" stroke-width="0.3"/><circle cx="462.69" cy="255.20" r="1.50" fill="#e6f3ec" stroke="#1f6f4a" stroke-width="0.3"/><circle cx="462.69" cy="162.00" r="1.50" fill="#e6f3ec" stroke="#1f6f4a" stroke-width="0.3"/><circle cx="552.17" cy="441.60" r="1.50" fill="#e6f3ec" stroke="#1f6f4a" stroke-width="0.3"/><circle cx="552.17" cy="348.40" r="1.50" fill="#e6f3ec" stroke="#1f6f4a" stroke-width="0.3"/><circle cx="552.17" cy="255.20" r="1.50" fill="#e6f3ec" stroke="#1f6f4a" stroke-width="0.3"/><circle cx="552.17" cy="162.00" r="1.50" fill="#e6f3ec" stroke="#1f6f4a" stroke-width="0.3"/><circle cx="641.66" cy="441.60" r="1.50" fill="#e6f3ec" stroke="#1f6f4a" stroke-width="0.3"/><circle cx="641.66" cy="348.40" r="1.50" fill="#e6f3ec" stroke="#1f6f4a" stroke-width="0.3"/><circle cx="641.66" cy="255.20" r="1.50" fill="#e6f3ec" stroke="#1f6f4a" stroke-width="0.3"/><circle cx="641.66" cy="162.00" r="1.50" fill="#e6f3ec" stroke="#1f6f4a" stroke-width="0.3"/><rect x="103.64" y="440.50" width="2.20" height="2.20" fill="#fbeaea" stroke="#8b1a1a" stroke-width="0.3"/><rect x="103.64" y="347.30" width="2.20" height="2.20" fill="#fbeaea" stroke="#8b1a1a" stroke-width="0.3"/><rect x="103.64" y="254.10" width="2.20" height="2.20" fill="#fbeaea" stroke="#8b1a1a" stroke-width="0.3"/><rect x="103.64" y="160.90" width="2.20" height="2.20" fill="#fbeaea" stroke="#8b1a1a" stroke-width="0.3"/><rect x="193.13" y="440.50" width="2.20" height="2.20" fill="#fbeaea" stroke="#8b1a1a" stroke-width="0.3"/><rect x="193.13" y="347.30" width="2.20" height="2.20" fill="#fbeaea" stroke="#8b1a1a" stroke-width="0.3"/><rect x="193.13" y="254.10" width="2.20" height="2.20" fill="#fbeaea" stroke="#8b1a1a" stroke-width="0.3"/><rect x="193.13" y="160.90" width="2.20" height="2.20" fill="#fbeaea" stroke="#8b1a1a" stroke-width="0.3"/><rect x="282.61" y="440.50" width="2.20" height="2.20" fill="#fbeaea" stroke="#8b1a1a" stroke-width="0.3"/><rect x="282.61" y="347.30" width="2.20" height="2.20" fill="#fbeaea" stroke="#8b1a1a" stroke-width="0.3"/><rect x="282.61" y="254.10" width="2.20" height="2.20" fill="#fbeaea" stroke="#8b1a1a" stroke-width="0.3"/><rect x="282.61" y="160.90" width="2.20" height="2.20" fill="#fbeaea" stroke="#8b1a1a" stroke-width="0.3"/><rect x="372.10" y="440.50" width="2.20" height="2.20" fill="#fbeaea" stroke="#8b1a1a" stroke-width="0.3"/><rect x="372.10" y="347.30" width="2.20" height="2.20" fill="#fbeaea" stroke="#8b1a1a" stroke-width="0.3"/><rect x="372.10" y="254.10" width="2.20" height="2.20" fill="#fbeaea" stroke="#8b1a1a" stroke-width="0.3"/><rect x="372.10" y="160.90" width="2.20" height="2.20" fill="#fbeaea" stroke="#8b1a1a" stroke-width="0.3"/><rect x="461.59" y="440.50" width="2.20" height="2.20" fill="#fbeaea" stroke="#8b1a1a" stroke-width="0.3"/><rect x="461.59" y="347.30" width="2.20" height="2.20" fill="#fbeaea" stroke="#8b1a1a" stroke-width="0.3"/><rect x="461.59" y="254.10" width="2.20" height="2.20" fill="#fbeaea" stroke="#8b1a1a" stroke-width="0.3"/><rect x="461.59" y="160.90" width="2.20" height="2.20" fill="#fbeaea" stroke="#8b1a1a" stroke-width="0.3"/><rect x="551.07" y="440.50" width="2.20" height="2.20" fill="#fbeaea" stroke="#8b1a1a" stroke-width="0.3"/><rect x="551.07" y="347.30" width="2.20" height="2.20" fill="#fbeaea" stroke="#8b1a1a" stroke-width="0.3"/><rect x="551.07" y="254.10" width="2.20" height="2.20" fill="#fbeaea" stroke="#8b1a1a" stroke-width="0.3"/><rect x="551.07" y="160.90" width="2.20" height="2.20" fill="#fbeaea" stroke="#8b1a1a" stroke-width="0.3"/><rect x="640.56" y="440.50" width="2.20" height="2.20" fill="#fbeaea" stroke="#8b1a1a" stroke-width="0.3"/><rect x="640.56" y="347.30" width="2.20" height="2.20" fill="#fbeaea" stroke="#8b1a1a" stroke-width="0.3"/><rect x="640.56" y="254.10" width="2.20" height="2.20" fill="#fbeaea" stroke="#8b1a1a" stroke-width="0.3"/><rect x="640.56" y="160.90" width="2.20" height="2.20" fill="#fbeaea" stroke="#8b1a1a" stroke-width="0.3"/><line x1="60.00" y1="506.20" x2="686.40" y2="506.20" stroke="#111" stroke-width="0.3"/><line x1="60.00" y1="504.20" x2="60.00" y2="508.20" stroke="#111" stroke-width="0.3"/><line x1="686.40" y1="504.20" x2="686.40" y2="508.20" stroke="#111" stroke-width="0.3"/><text x="373.20" y="503.70" font-size="2.8" text-anchor="middle" fill="#111" font-weight="normal" font-family="Helvetica,Arial,sans-serif">62.0 m  (203 ft)</text><line x1="36.00" y1="488.20" x2="36.00" y2="115.40" stroke="#111" stroke-width="0.3"/><line x1="34.00" y1="488.20" x2="38.00" y2="488.20" stroke="#111" stroke-width="0.3"/><line x1="34.00" y1="115.40" x2="38.00" y2="115.40" stroke="#111" stroke-width="0.3"/><text x="33.00" y="301.80" font-size="2.8" text-anchor="end" fill="#111" font-weight="normal" font-family="Helvetica,Arial,sans-serif">36.9 m  (121 ft)</text><rect x="16.00" y="16.00" width="148.00" height="14.00" fill="#ffffff" fill-opacity="0.92" stroke="#bbb" stroke-width="0.25"/><text x="20.00" y="25.00" font-size="5.0" text-anchor="start" fill="#111" font-weight="bold" font-family="Helvetica,Arial,sans-serif">POWER AND LIGHTING PLAN</text><circle cx="698.40" cy="32.00" r="7.00" fill="none" stroke="#111" stroke-width="0.4"/><polygon points="698.40,26.00 695.80,36.50 698.40,34.50 701.00,36.50" fill="#111" stroke="#111" stroke-width="0.3"/><text x="698.40" y="23.00" font-size="3.4" text-anchor="middle" fill="#111" font-weight="bold" font-family="Helvetica,Arial,sans-serif">N</text><rect x="16.00" y="539.60" width="96.00" height="50.00" fill="#ffffff" fill-opacity="0.92" stroke="#bbb" stroke-width="0.25"/><text x="20.00" y="545.60" font-size="3.0" text-anchor="start" fill="#999" font-weight="bold" font-family="Helvetica,Arial,sans-serif">LEGEND</text><rect x="20.60" y="550.20" width="2.80" height="2.80" fill="#fff" stroke="#b8860b" stroke-width="0.3"/><text x="27.00" y="552.60" font-size="2.8" text-anchor="start" fill="#111" font-weight="normal" font-family="Helvetica,Arial,sans-serif">Cable tray / busway (1)</text><circle cx="22.00" cy="557.00" r="1.50" fill="#fff" stroke="#1f6f4a" stroke-width="0.3"/><text x="27.00" y="558.00" font-size="2.8" text-anchor="start" fill="#111" font-weight="normal" font-family="Helvetica,Arial,sans-serif">Air terminal / diffuser (28)</text><rect x="20.60" y="561.00" width="2.80" height="2.80" fill="#fff" stroke="#8b1a1a" stroke-width="0.3"/><text x="27.00" y="563.40" font-size="2.8" text-anchor="start" fill="#111" font-weight="normal" font-family="Helvetica,Arial,sans-serif">Detection device (28)</text><line x1="24.00" y1="579.60" x2="226.06" y2="579.60" stroke="#111" stroke-width="0.5"/><line x1="24.00" y1="577.80" x2="24.00" y2="581.40" stroke="#111" stroke-width="0.5"/><text x="24.00" y="585.60" font-size="2.6" text-anchor="middle" fill="#111" font-weight="normal" font-family="Helvetica,Arial,sans-serif">0</text><line x1="74.52" y1="577.80" x2="74.52" y2="581.40" stroke="#111" stroke-width="0.5"/><text x="74.52" y="585.60" font-size="2.6" text-anchor="middle" fill="#111" font-weight="normal" font-family="Helvetica,Arial,sans-serif">5</text><line x1="125.03" y1="577.80" x2="125.03" y2="581.40" stroke="#111" stroke-width="0.5"/><text x="125.03" y="585.60" font-size="2.6" text-anchor="middle" fill="#111" font-weight="normal" font-family="Helvetica,Arial,sans-serif">10</text><line x1="226.06" y1="577.80" x2="226.06" y2="581.40" stroke="#111" stroke-width="0.5"/><text x="226.06" y="585.60" font-size="2.6" text-anchor="middle" fill="#111" font-weight="normal" font-family="Helvetica,Arial,sans-serif">20</text><text x="125.03" y="575.60" font-size="2.4" text-anchor="middle" fill="#555" font-weight="normal" font-family="Helvetica,Arial,sans-serif">METRES</text></svg>